<svg id="Layer_1" data-name="Layer 1" xmlns="http://www.w3.org/2000/svg" xmlns:xlink="http://www.w3.org/1999/xlink" viewBox="0 0 100 100"><defs><style>.cls-1,.cls-2{fill:#fff;}.cls-2,.cls-5{stroke:#9cf;stroke-width:4px;}.cls-3{fill:#9cf;}.cls-4{mask:url(#mask);}.cls-5{fill:none;}</style><mask id="mask" x="6.27" y="22.69" width="89" height="46" maskUnits="userSpaceOnUse"><g transform="translate(-273 -335.33)"><g id="path-2-outside-1_67_20" data-name="path-2-outside-1 67 20"><rect class="cls-1" x="279.27" y="358.03" width="89" height="46"/><path d="M349.73,401a21.49,21.49,0,0,1-6-.88,22.91,22.91,0,0,1-5.83-2.5,20.18,20.18,0,0,1-4.68-3.95q-4.15,4.15-7.9,4.16a3.48,3.48,0,0,1-2.86-1.14,4.23,4.23,0,0,1-.94-2.86,16.19,16.19,0,0,1,2.5-7.7q2.34-4.15,3.74-4.37,1.05,0,2.13,2.13l3.28,6.35q2.76-3.69,5.77-8c-2.84-1.28-4.26-3.14-4.26-5.56a5.69,5.69,0,0,1,.73-2.86,6.83,6.83,0,0,1,2-2.19,4.27,4.27,0,0,1,2.45-.83,2.6,2.6,0,0,1,2.49,1.61.27.27,0,0,1,0,.32c0,.1-.08.13-.15.1a3.14,3.14,0,0,0-1-.73,3,3,0,0,0-1.25-.31,2.89,2.89,0,0,0-2,.88,6.19,6.19,0,0,0-1.4,2,4.06,4.06,0,0,0-.37,2q0,2.65,3.75,4.63l1.92-2.81c.69-1,1.44-2.15,2.24-3.33Q354.36,360,361.22,360c3.22,0,4.83,1.5,4.83,4.52q0,4.11-4,9.67a21.68,21.68,0,0,1-5,4.94,27.9,27.9,0,0,1-6.4,3.49,18.36,18.36,0,0,1-6.45,1.24c-.48,0-1,0-1.45-.05a6.53,6.53,0,0,1-1.25-.31q-1.35,1.77-3.12,4l-3.9,4.84a12.86,12.86,0,0,0,2.65,2.6,22.58,22.58,0,0,0,3.95,2.29,30.07,30.07,0,0,0,4.32,1.66,13.65,13.65,0,0,0,3.85.62,13.49,13.49,0,0,0,3.64-.46,5.91,5.91,0,0,0,2.7-1.41,3.15,3.15,0,0,0,1-2.49v-.42a1.51,1.51,0,0,0-.05-.42.21.21,0,0,0,0-.15V394c0-.34.1-.52.31-.52s.62.28.83.84a3.51,3.51,0,0,1,.31,1.24,3.77,3.77,0,0,1-1.24,2.81,8.48,8.48,0,0,1-3.18,1.93A11.21,11.21,0,0,1,349.73,401Zm-5.88-18.46a15.55,15.55,0,0,0,5.67-1.19,26.59,26.59,0,0,0,5.67-3.23,19.81,19.81,0,0,0,4.36-4.37q4.74-6.6,4.74-10a2.57,2.57,0,0,0-.84-2.13,3,3,0,0,0-2-.68q-2.61,0-6.45,4.37c-.8.93-1.86,2.29-3.17,4.05s-2.81,3.89-4.58,6.45c-.69,1-1.46,2.06-2.29,3.17s-1.7,2.26-2.6,3.44A7.51,7.51,0,0,0,343.85,382.54Zm-18.41,13.89a4.36,4.36,0,0,0,2.19-.73A12.3,12.3,0,0,0,330,394a13.67,13.67,0,0,0,1.87-2q-.72-1-1.56-2.49c-.55-1-1.16-2.1-1.82-3.38-.8-1.67-1.4-2.41-1.82-2.24-.62.11-1.3,1.21-2,3.33a18.19,18.19,0,0,0-1.09,5.93C323.57,395.32,324.19,396.43,325.44,396.43Z"/><path d="M316.63,401.16a4.68,4.68,0,0,1-3.59-1.67,15.71,15.71,0,0,1-2.55-4.26,52.35,52.35,0,0,1-1.92-5.36c-1.29-4.19-1.82-6.69-1.62-7.48q-3.06,4.1-5.3,6.86a52.65,52.65,0,0,1-3.64,4.06q-6.13,5.93-12.43,5.92a5.53,5.53,0,0,1-3.07-.78,2.82,2.82,0,0,1-1.24-2.6,6.54,6.54,0,0,1,.52-2.44,13.31,13.31,0,0,1,1.3-2.55,12.09,12.09,0,0,1,1.56-2c1.14-1.15,2.09-1.72,2.86-1.72.13,0,.2,0,.2.1s-.26.47-.78.89a13.07,13.07,0,0,0-3,3.38,6.49,6.49,0,0,0-1.2,3.43q0,2.91,4.11,2.76,6.71-.27,18.62-16.23a7.44,7.44,0,0,1,1.14-1.25l-.83-.31a3.34,3.34,0,0,1-1.09.26c-.73,0-1.1-.29-1.1-.88q0-1.2,1.62-1.56a3.21,3.21,0,0,1,2.54.88l3.9-4.37a40.65,40.65,0,0,1,3.49-3.38,4.44,4.44,0,0,1,2.49-1.35c.84,0,1.25.38,1.25,1.15a2.21,2.21,0,0,1-.26,1c-.14.32-.31.47-.52.47s-.31-.07-.31-.31a1,1,0,0,1,.31-.62V371a.54.54,0,0,0-.21-.47q-1.35-.88-8.32,8.79l1.2.1h1.4q12.08,0,15.08-6.24a5.94,5.94,0,0,0,.63-2.49,5.05,5.05,0,0,0-2.13-4,10.79,10.79,0,0,0-5.1-2.08,34.65,34.65,0,0,0-6.24-.57,33.64,33.64,0,0,0-14.72,3.8q-9.46,4.62-9.46,10.86c0,1.36.88,2,2.65,2a10.51,10.51,0,0,0,5.51-2,10.9,10.9,0,0,0,3.64-3.59c.25-.45.47-.68.68-.68s.31.14.21.42a9.59,9.59,0,0,1-4.42,5,13.06,13.06,0,0,1-6.87,2q-4.2,0-3.9-2.71.78-6.81,8.38-11.59t18.2-4.73a42.06,42.06,0,0,1,7.85.72,13.66,13.66,0,0,1,6.24,2.71,6.19,6.19,0,0,1,2.49,4.89,7,7,0,0,1-.57,2.6,9.08,9.08,0,0,1-2.7,3.48,15.89,15.89,0,0,1-4.21,2.29,26.52,26.52,0,0,1-5.05,1.3,34.1,34.1,0,0,1-5.15.41c-.9,0-1.76,0-2.6-.1a20.33,20.33,0,0,1-2.23-.31c.21.66.57,1.85,1.09,3.59s1.18,4,2,6.76a22.28,22.28,0,0,0,1,2.49,21.39,21.39,0,0,0,1.51,2.55,10.18,10.18,0,0,0,1.77,2,3.2,3.2,0,0,0,2,.78c1.45,0,2.66-1.48,3.64-4.42.17-.7.36-1,.57-1s.33.32.47,1a1.61,1.61,0,0,1,0,.42,6.11,6.11,0,0,1-1.46,3.33C319.66,400.2,318.22,401.16,316.63,401.16Z"/></g></g></mask></defs><rect class="cls-2" x="2" y="2" width="96" height="96" rx="23"/><path class="cls-3" d="M349.73,401a21.49,21.49,0,0,1-6-.88,22.91,22.91,0,0,1-5.83-2.5,20.18,20.18,0,0,1-4.68-3.95q-4.15,4.15-7.9,4.16a3.48,3.48,0,0,1-2.86-1.14,4.23,4.23,0,0,1-.94-2.86,16.19,16.19,0,0,1,2.5-7.7q2.34-4.15,3.74-4.37,1.05,0,2.13,2.13l3.28,6.35q2.76-3.69,5.77-8c-2.84-1.28-4.26-3.14-4.26-5.56a5.69,5.69,0,0,1,.73-2.86,6.83,6.83,0,0,1,2-2.19,4.27,4.27,0,0,1,2.45-.83,2.6,2.6,0,0,1,2.49,1.61.27.27,0,0,1,0,.32c0,.1-.08.13-.15.1a3.14,3.14,0,0,0-1-.73,3,3,0,0,0-1.25-.31,2.89,2.89,0,0,0-2,.88,6.19,6.19,0,0,0-1.4,2,4.06,4.06,0,0,0-.37,2q0,2.65,3.75,4.63l1.92-2.81c.69-1,1.44-2.15,2.24-3.33Q354.36,360,361.22,360c3.22,0,4.83,1.5,4.83,4.52q0,4.11-4,9.67a21.68,21.68,0,0,1-5,4.94,27.9,27.9,0,0,1-6.4,3.49,18.36,18.36,0,0,1-6.45,1.24c-.48,0-1,0-1.45-.05a6.53,6.53,0,0,1-1.25-.31q-1.35,1.77-3.12,4l-3.9,4.84a12.86,12.86,0,0,0,2.65,2.6,22.58,22.58,0,0,0,3.95,2.29,30.07,30.07,0,0,0,4.32,1.66,13.65,13.65,0,0,0,3.85.62,13.49,13.49,0,0,0,3.64-.46,5.91,5.91,0,0,0,2.7-1.41,3.15,3.15,0,0,0,1-2.49v-.42a1.51,1.51,0,0,0-.05-.42.21.21,0,0,0,0-.15V394c0-.34.1-.52.31-.52s.62.28.83.84a3.51,3.51,0,0,1,.31,1.24,3.77,3.77,0,0,1-1.24,2.81,8.48,8.48,0,0,1-3.18,1.93A11.21,11.21,0,0,1,349.73,401Zm-5.88-18.46a15.55,15.55,0,0,0,5.67-1.19,26.59,26.59,0,0,0,5.67-3.23,19.81,19.81,0,0,0,4.36-4.37q4.74-6.6,4.74-10a2.57,2.57,0,0,0-.84-2.13,3,3,0,0,0-2-.68q-2.61,0-6.45,4.37c-.8.93-1.86,2.29-3.17,4.05s-2.81,3.89-4.58,6.45c-.69,1-1.46,2.06-2.29,3.17s-1.7,2.26-2.6,3.44A7.51,7.51,0,0,0,343.85,382.54Zm-18.41,13.89a4.36,4.36,0,0,0,2.19-.73A12.3,12.3,0,0,0,330,394a13.67,13.67,0,0,0,1.87-2q-.72-1-1.56-2.49c-.55-1-1.16-2.1-1.82-3.38-.8-1.67-1.4-2.41-1.82-2.24-.62.11-1.3,1.21-2,3.33a18.19,18.19,0,0,0-1.09,5.93C323.57,395.32,324.19,396.43,325.44,396.43Z" transform="translate(-273 -335.33)"/><path class="cls-3" d="M316.63,401.16a4.68,4.68,0,0,1-3.59-1.67,15.71,15.71,0,0,1-2.55-4.26,52.35,52.35,0,0,1-1.92-5.36c-1.29-4.19-1.82-6.69-1.62-7.48q-3.06,4.1-5.3,6.86a52.65,52.65,0,0,1-3.64,4.06q-6.13,5.93-12.43,5.92a5.53,5.53,0,0,1-3.07-.78,2.82,2.82,0,0,1-1.24-2.6,6.54,6.54,0,0,1,.52-2.44,13.31,13.31,0,0,1,1.3-2.55,12.09,12.09,0,0,1,1.56-2c1.14-1.15,2.09-1.72,2.86-1.72.13,0,.2,0,.2.1s-.26.47-.78.89a13.07,13.07,0,0,0-3,3.38,6.49,6.49,0,0,0-1.2,3.43q0,2.91,4.11,2.76,6.71-.27,18.62-16.23a7.44,7.44,0,0,1,1.14-1.25l-.83-.31a3.34,3.34,0,0,1-1.09.26c-.73,0-1.1-.29-1.1-.88q0-1.2,1.62-1.56a3.21,3.21,0,0,1,2.54.88l3.9-4.37a40.65,40.65,0,0,1,3.49-3.38,4.44,4.44,0,0,1,2.49-1.35c.84,0,1.25.38,1.25,1.15a2.21,2.21,0,0,1-.26,1c-.14.32-.31.47-.52.47s-.31-.07-.31-.31a1,1,0,0,1,.31-.62V371a.54.54,0,0,0-.21-.47q-1.35-.88-8.32,8.79l1.2.1h1.4q12.08,0,15.08-6.24a5.94,5.94,0,0,0,.63-2.49,5.05,5.05,0,0,0-2.13-4,10.79,10.79,0,0,0-5.1-2.08,34.65,34.65,0,0,0-6.24-.57,33.64,33.64,0,0,0-14.72,3.8q-9.46,4.62-9.46,10.86c0,1.36.88,2,2.65,2a10.51,10.51,0,0,0,5.51-2,10.9,10.9,0,0,0,3.64-3.59c.25-.45.47-.68.68-.68s.31.14.21.42a9.59,9.59,0,0,1-4.42,5,13.06,13.06,0,0,1-6.87,2q-4.2,0-3.9-2.71.78-6.81,8.38-11.59t18.2-4.73a42.06,42.06,0,0,1,7.85.72,13.66,13.66,0,0,1,6.24,2.71,6.19,6.19,0,0,1,2.49,4.89,7,7,0,0,1-.57,2.6,9.08,9.08,0,0,1-2.7,3.48,15.89,15.89,0,0,1-4.21,2.29,26.52,26.52,0,0,1-5.05,1.3,34.1,34.1,0,0,1-5.15.41c-.9,0-1.76,0-2.6-.1a20.33,20.33,0,0,1-2.23-.31c.21.66.57,1.85,1.09,3.59s1.18,4,2,6.76a22.28,22.28,0,0,0,1,2.49,21.39,21.39,0,0,0,1.51,2.55,10.18,10.18,0,0,0,1.77,2,3.2,3.2,0,0,0,2,.78c1.45,0,2.66-1.48,3.64-4.42.17-.7.36-1,.57-1s.33.32.47,1a1.61,1.61,0,0,1,0,.42,6.11,6.11,0,0,1-1.46,3.33C319.66,400.2,318.22,401.16,316.63,401.16Z" transform="translate(-273 -335.33)"/><g class="cls-4"><path class="cls-5" d="M349.73,401a21.49,21.49,0,0,1-6-.88,22.91,22.91,0,0,1-5.83-2.5,20.18,20.18,0,0,1-4.68-3.95q-4.15,4.15-7.9,4.16a3.48,3.48,0,0,1-2.86-1.14,4.23,4.23,0,0,1-.94-2.86,16.19,16.19,0,0,1,2.5-7.7q2.34-4.15,3.74-4.37,1.05,0,2.13,2.13l3.28,6.35q2.76-3.69,5.77-8c-2.84-1.28-4.26-3.14-4.26-5.56a5.69,5.69,0,0,1,.73-2.86,6.83,6.83,0,0,1,2-2.19,4.27,4.27,0,0,1,2.45-.83,2.6,2.6,0,0,1,2.49,1.61.27.27,0,0,1,0,.32c0,.1-.08.13-.15.1a3.14,3.14,0,0,0-1-.73,3,3,0,0,0-1.25-.31,2.89,2.89,0,0,0-2,.88,6.19,6.19,0,0,0-1.4,2,4.06,4.06,0,0,0-.37,2q0,2.65,3.75,4.63l1.92-2.81c.69-1,1.44-2.15,2.24-3.33Q354.36,360,361.22,360c3.22,0,4.83,1.5,4.83,4.52q0,4.11-4,9.67a21.68,21.68,0,0,1-5,4.94,27.9,27.9,0,0,1-6.4,3.49,18.36,18.36,0,0,1-6.45,1.24c-.48,0-1,0-1.45-.05a6.53,6.53,0,0,1-1.25-.31q-1.35,1.77-3.12,4l-3.9,4.84a12.86,12.86,0,0,0,2.65,2.6,22.58,22.58,0,0,0,3.95,2.29,30.07,30.07,0,0,0,4.32,1.66,13.65,13.65,0,0,0,3.85.62,13.49,13.49,0,0,0,3.64-.46,5.91,5.91,0,0,0,2.7-1.41,3.15,3.15,0,0,0,1-2.49v-.42a1.51,1.51,0,0,0-.05-.42.21.21,0,0,0,0-.15V394c0-.34.1-.52.31-.52s.62.28.83.84a3.51,3.51,0,0,1,.31,1.24,3.77,3.77,0,0,1-1.24,2.81,8.48,8.48,0,0,1-3.18,1.93A11.21,11.21,0,0,1,349.73,401Zm-5.88-18.46a15.55,15.55,0,0,0,5.67-1.19,26.59,26.59,0,0,0,5.67-3.23,19.81,19.81,0,0,0,4.36-4.37q4.74-6.6,4.74-10a2.57,2.57,0,0,0-.84-2.13,3,3,0,0,0-2-.68q-2.61,0-6.45,4.37c-.8.93-1.86,2.29-3.17,4.05s-2.81,3.89-4.58,6.45c-.69,1-1.46,2.06-2.29,3.17s-1.7,2.26-2.6,3.44A7.51,7.51,0,0,0,343.85,382.54Zm-18.41,13.89a4.36,4.36,0,0,0,2.19-.73A12.3,12.3,0,0,0,330,394a13.67,13.67,0,0,0,1.87-2q-.72-1-1.56-2.49c-.55-1-1.16-2.1-1.82-3.38-.8-1.67-1.4-2.41-1.82-2.24-.62.11-1.3,1.21-2,3.33a18.19,18.19,0,0,0-1.09,5.93C323.57,395.32,324.19,396.43,325.44,396.43Z" transform="translate(-273 -335.33)"/></g><g class="cls-4"><path class="cls-5" d="M316.63,401.16a4.68,4.68,0,0,1-3.59-1.67,15.71,15.71,0,0,1-2.55-4.26,52.35,52.35,0,0,1-1.92-5.36c-1.29-4.19-1.82-6.69-1.62-7.48q-3.06,4.1-5.3,6.86a52.65,52.65,0,0,1-3.64,4.06q-6.13,5.93-12.43,5.92a5.53,5.53,0,0,1-3.07-.78,2.82,2.82,0,0,1-1.24-2.6,6.54,6.54,0,0,1,.52-2.44,13.31,13.31,0,0,1,1.3-2.55,12.09,12.09,0,0,1,1.56-2c1.14-1.15,2.09-1.72,2.86-1.72.13,0,.2,0,.2.1s-.26.47-.78.89a13.07,13.07,0,0,0-3,3.38,6.49,6.49,0,0,0-1.2,3.43q0,2.91,4.11,2.76,6.71-.27,18.62-16.23a7.44,7.44,0,0,1,1.14-1.25l-.83-.31a3.34,3.34,0,0,1-1.09.26c-.73,0-1.1-.29-1.1-.88q0-1.2,1.62-1.56a3.21,3.21,0,0,1,2.54.88l3.9-4.37a40.65,40.65,0,0,1,3.49-3.38,4.44,4.44,0,0,1,2.49-1.35c.84,0,1.25.38,1.25,1.15a2.21,2.21,0,0,1-.26,1c-.14.32-.31.47-.52.47s-.31-.07-.31-.31a1,1,0,0,1,.31-.62V371a.54.54,0,0,0-.21-.47q-1.35-.88-8.32,8.79l1.2.1h1.4q12.08,0,15.08-6.24a5.94,5.94,0,0,0,.63-2.49,5.05,5.05,0,0,0-2.13-4,10.79,10.79,0,0,0-5.1-2.08,34.65,34.65,0,0,0-6.24-.57,33.64,33.64,0,0,0-14.72,3.8q-9.46,4.62-9.46,10.86c0,1.36.88,2,2.65,2a10.51,10.51,0,0,0,5.51-2,10.9,10.9,0,0,0,3.64-3.59c.25-.45.47-.68.68-.68s.31.14.21.42a9.59,9.59,0,0,1-4.42,5,13.06,13.06,0,0,1-6.87,2q-4.2,0-3.9-2.71.78-6.81,8.38-11.59t18.2-4.73a42.06,42.06,0,0,1,7.85.72,13.66,13.66,0,0,1,6.24,2.71,6.19,6.19,0,0,1,2.49,4.89,7,7,0,0,1-.57,2.6,9.08,9.08,0,0,1-2.7,3.48,15.89,15.89,0,0,1-4.21,2.29,26.52,26.52,0,0,1-5.05,1.3,34.1,34.1,0,0,1-5.15.41c-.9,0-1.76,0-2.6-.1a20.33,20.33,0,0,1-2.23-.31c.21.66.57,1.85,1.09,3.59s1.18,4,2,6.76a22.28,22.28,0,0,0,1,2.49,21.39,21.39,0,0,0,1.51,2.55,10.18,10.18,0,0,0,1.77,2,3.2,3.2,0,0,0,2,.78c1.45,0,2.66-1.48,3.64-4.42.17-.7.36-1,.57-1s.33.32.47,1a1.61,1.61,0,0,1,0,.42,6.11,6.11,0,0,1-1.46,3.33C319.66,400.2,318.22,401.16,316.63,401.16Z" transform="translate(-273 -335.33)"/></g></svg>