<svg id="Layer_1" data-name="Layer 1" xmlns="http://www.w3.org/2000/svg" viewBox="0 0 389.13 166.26"><defs><style>.cls-1{fill:#fff;}</style></defs><path class="cls-1" d="M134.86,446q-8.72,0-13.44-1.92t-6.53-5.37a17.54,17.54,0,0,1-1.79-8.19,37.36,37.36,0,0,1,.38-5.12q.39-3,.9-6.66a157.32,157.32,0,0,0,2.3-25,97.1,97.1,0,0,0-.64-12.16,22.79,22.79,0,0,0-3.33-9.73,13.43,13.43,0,0,1-.89-1.53,3.87,3.87,0,0,1-.39-1.41,4.6,4.6,0,0,1,1.79-3.2,16.06,16.06,0,0,1,4.36-2.82,11.77,11.77,0,0,1,4.86-1.15q4.35,0,5.38,3.46a32.91,32.91,0,0,1,1.15,9.85c0,1.62-.17,4.23-.51,7.81s-.86,8-1.54,13.44q-1,7.93-1.54,13.7t-.51,9.21A20.8,20.8,0,0,0,126,427a7.1,7.1,0,0,0,4.1,3.58,24,24,0,0,0,7.94,1,59,59,0,0,0,10.49-.9,49.06,49.06,0,0,0,9.73-3.07,8.51,8.51,0,0,1,1.15-.38,3.54,3.54,0,0,1,.9-.13,2.79,2.79,0,0,1,2.17,1.41,6.59,6.59,0,0,1,1,4q0,5.64-6.15,8.84Q149.19,446,134.86,446Zm53.76,0q-8.82,0-14.2-4.73T169.17,427a31,31,0,0,1,1.15-8.45,38.26,38.26,0,0,1,3.33-7.68,6.88,6.88,0,0,1-3.07,1.28,2.24,2.24,0,0,1-2.18-1.66,12.66,12.66,0,0,1-.51-3.46,8,8,0,0,1,1.15-4.61,12.62,12.62,0,0,1,2.43-2.68,38.52,38.52,0,0,1,8.45-5A31.31,31.31,0,0,1,193.74,392q11,0,17,6.14t6.14,17.15a33.91,33.91,0,0,1-3.58,15.62,28.24,28.24,0,0,1-10,11A26.29,26.29,0,0,1,188.62,446Zm4-13a15.33,15.33,0,0,0,10.75-4,13.87,13.87,0,0,0,4.48-10.75q0-6.92-4.48-9.86A18.44,18.44,0,0,0,193,405.39a21.36,21.36,0,0,0-4.87.51,28.77,28.77,0,0,0-4.09,1.28,33,33,0,0,0-3.2,5.76,17.26,17.26,0,0,0-1.41,7q0,6.4,3.84,9.73A14.12,14.12,0,0,0,192.59,432.91ZM247,446q-8.83,0-14.21-4.73T227.54,427a31.38,31.38,0,0,1,1.15-8.45,39.43,39.43,0,0,1,3.33-7.68,6.83,6.83,0,0,1-3.07,1.28,2.25,2.25,0,0,1-2.18-1.66,12.66,12.66,0,0,1-.51-3.46,8.08,8.08,0,0,1,1.15-4.61,12.9,12.9,0,0,1,2.44-2.68,38.65,38.65,0,0,1,8.44-5A31.33,31.33,0,0,1,252.12,392q11,0,17,6.14t6.15,17.15a33.91,33.91,0,0,1-3.59,15.62,28.22,28.22,0,0,1-10,11A26.31,26.31,0,0,1,247,446Zm4-13a15.35,15.35,0,0,0,10.75-4,13.87,13.87,0,0,0,4.48-10.75q0-6.92-4.48-9.86a18.47,18.47,0,0,0-10.37-2.94,21.33,21.33,0,0,0-4.86.51,28.91,28.91,0,0,0-4.1,1.28,34.31,34.31,0,0,0-3.2,5.76,17.26,17.26,0,0,0-1.41,7q0,6.4,3.84,9.73A14.14,14.14,0,0,0,251,432.91Zm41.49,46.72a8.12,8.12,0,0,1-6-2.18q-2.18-2-2.18-7.55a71.76,71.76,0,0,1,.77-9.34q.9-5.64,2-11.91.89-5,1.66-10.49t1.41-10.76a81.29,81.29,0,0,0,.64-9.6,27.56,27.56,0,0,0-1.15-8.44,6.28,6.28,0,0,0-4.35-4.61A15.07,15.07,0,0,1,283,403.6a2.24,2.24,0,0,1-1-2.05,7.46,7.46,0,0,1,1.41-4,11.92,11.92,0,0,1,4-3.71,11.23,11.23,0,0,1,6-1.67q4.35,0,6,3.08a15.79,15.79,0,0,1,1.66,7.8c0,.94,0,1.92-.13,2.95s-.21,1.92-.38,2.94a37.12,37.12,0,0,1,9.73-12,21.32,21.32,0,0,1,13.82-5q7.68,0,12,5.25t4.48,13.95a40.86,40.86,0,0,1-2,12.8,39.07,39.07,0,0,1-5.76,11.13,28.28,28.28,0,0,1-9,7.94A22.7,22.7,0,0,1,312.3,446a18.36,18.36,0,0,1-8.06-1.66,19.76,19.76,0,0,1-6-4.1q-.51,3.33-1,8.07c-.26,3.15-.38,6.1-.38,8.83a21.55,21.55,0,0,0,1,7.42,7.92,7.92,0,0,0,4.35,4.1,2.14,2.14,0,0,1,1.41,2.05,8.77,8.77,0,0,1-1,3.2,10.81,10.81,0,0,1-3.46,4Q296.81,479.63,292.46,479.63Zm22.79-47.49q7.29,0,11.26-4.61a15.77,15.77,0,0,0,4-10.62q0-5.25-2.82-8.07a10,10,0,0,0-7.55-2.94,13.4,13.4,0,0,0-8.57,2.94,24.88,24.88,0,0,0-6.4,7.43,53.26,53.26,0,0,0-4.23,9.85A20.41,20.41,0,0,0,315.25,432.14Zm45.9-51.46a8.52,8.52,0,0,1-5.76-2.17,7.54,7.54,0,0,1-2.17-5.76,8.83,8.83,0,0,1,2.68-6.4,8.42,8.42,0,0,1,6.53-2.43,8.19,8.19,0,0,1,5.76,2.17,7.2,7.2,0,0,1,2.05,5.76,9.42,9.42,0,0,1-2.56,6.4A8.83,8.83,0,0,1,361.15,380.68Zm.13,64.9a8.42,8.42,0,0,1-6-2.05q-2.17-2.17-2.17-7.29a32.14,32.14,0,0,1,.51-5.76q.64-2.82,1.41-5.51a46.54,46.54,0,0,0,1.41-5.76,29.87,29.87,0,0,0,.64-6.27,14.67,14.67,0,0,0-.64-4.35,5,5,0,0,0-2.82-3.2,31.13,31.13,0,0,1-2.94-1.79A3.3,3.3,0,0,1,349.5,401a6.24,6.24,0,0,1,1.67-3.84,13.68,13.68,0,0,1,4.35-3.46,12,12,0,0,1,5.76-1.54q3.2,0,4.61,1.67a8.68,8.68,0,0,1,2.05,4.22,26.86,26.86,0,0,1,.51,5.25,50.09,50.09,0,0,1-.64,8.06c-.43,2.56-.85,5-1.28,7.17-.34,1.62-.6,3.12-.77,4.48a31.35,31.35,0,0,0-.26,3.84,7,7,0,0,0,1.54,4.87,16.9,16.9,0,0,0,4.35,2.94,2.07,2.07,0,0,1,1.15,1.92,8.77,8.77,0,0,1-1,3.2,10.42,10.42,0,0,1-3.58,4A11.06,11.06,0,0,1,361.28,445.58Zm28,.13c-3.07,0-4.44-1-4.1-3.07q1.41-5.5,2.31-11.14a63.19,63.19,0,0,0,1-11,38.45,38.45,0,0,0-.9-9.85q-.76-3.21-2.17-4.36a9.16,9.16,0,0,0-3.46-1.92,6.52,6.52,0,0,1-1.66-1,2.41,2.41,0,0,1-.64-1.79,7.46,7.46,0,0,1,1.41-4,11.82,11.82,0,0,1,4-3.71,11.23,11.23,0,0,1,6-1.67q4.35,0,6,3.08a15.79,15.79,0,0,1,1.66,7.8,44.93,44.93,0,0,1-.64,7.17c-.43,2.65-.85,5-1.28,7.17l.38.13A71.37,71.37,0,0,1,403.4,405a34.29,34.29,0,0,1,8.57-9.47A18.5,18.5,0,0,1,423.24,392q6.78,0,10.37,4.09a15,15,0,0,1,3.58,10.24,18,18,0,0,1-.64,4.87c-.34,1.53-.73,3-1.15,4.48s-.81,2.77-1.15,4.22a24.6,24.6,0,0,0-.39,4.35q0,7.31,6.91,9.86a2.48,2.48,0,0,1,1.8,2.3,11.07,11.07,0,0,1-.77,3.33,10.38,10.38,0,0,1-2.82,4.1c-1.36,1.19-3.37,1.79-6,1.79A9.51,9.51,0,0,1,425,442a15,15,0,0,1-2.82-9.35,33.15,33.15,0,0,1,.64-6.4q.78-3.33,1.54-6.14.51-2.17.9-4.23a17.08,17.08,0,0,0,.51-3.84q0-5.88-6.15-5.88a12.63,12.63,0,0,0-9.21,4,33.49,33.49,0,0,0-6.79,9.73,82.05,82.05,0,0,0-4.6,11.91v3.07a11.46,11.46,0,0,1-2.69,7.81A8.69,8.69,0,0,1,389.32,445.71Zm78.09,33.92q-9.59,0-15.23-4t-5.63-10.24a12.89,12.89,0,0,1,2.82-8.19,9.46,9.46,0,0,1,7.68-3.59c1.79,0,2.69.52,2.69,1.54a6.49,6.49,0,0,1-.39,2.05,10.6,10.6,0,0,0-.26,2.3q0,3.59,4.1,5.25a24.43,24.43,0,0,0,9.86,1.79,35.3,35.3,0,0,0,7.29-.77,16.77,16.77,0,0,0,6.15-2.43,4.73,4.73,0,0,0,2.56-4.22,4.57,4.57,0,0,0-2.95-4.35,28.3,28.3,0,0,0-7.42-2.18c-3-.43-6.06-.85-9.22-1.28a32.17,32.17,0,0,1-7.93-1.79,15.93,15.93,0,0,1-6.28-3.46,7.11,7.11,0,0,1-2-5.25q0-6,7.29-9.6a14.84,14.84,0,0,1-6.4-6.14,19,19,0,0,1-2-8.83,23.09,23.09,0,0,1,3.19-11.78,24.9,24.9,0,0,1,9.73-9q6.54-3.58,16.26-3.58a45.52,45.52,0,0,1,8.83.89,16.39,16.39,0,0,1,7.43,3.08,7.35,7.35,0,0,1,3.07,6.4,11.24,11.24,0,0,1-.64,3.45,2.41,2.41,0,0,1-2.43,1.79,10.89,10.89,0,0,1-2.05-.25c-.86-.26-1.62-.47-2.31-.64a26.12,26.12,0,0,1,.39,2.81,19.66,19.66,0,0,1,.25,3.2,20.84,20.84,0,0,1-5.12,13.7q-5.12,6-15,7.17a22,22,0,0,0-5.38.89c-1.11.34-1.66,1-1.66,1.92a2.06,2.06,0,0,0,1.53,1.92,19.38,19.38,0,0,0,4,.77A83.55,83.55,0,0,1,486,441.23a19.78,19.78,0,0,1,9.35,4.86q3.45,3.46,3.46,9.73a19,19,0,0,1-4.36,12.54A27.2,27.2,0,0,1,483,476.68,40.57,40.57,0,0,1,467.41,479.63Zm4.87-57.22q5.88,0,9.22-3.2a11,11,0,0,0,3.32-8.32,15.62,15.62,0,0,0-.25-2.81c-.17-1-.34-1.88-.51-2.56a16.75,16.75,0,0,0-4-.77,28.28,28.28,0,0,0-3.72-.26q-6.78,0-10.62,2.56a8,8,0,0,0-3.84,7,7.33,7.33,0,0,0,2.82,6.15A12,12,0,0,0,472.28,422.41Z" transform="translate(-111.43 -313.37)"/><path class="cls-1" d="M291.46,366.36a6.45,6.45,0,0,1-5-2.3,21.54,21.54,0,0,1-3.53-5.9,75.91,75.91,0,0,1-2.67-7.42q-2.66-8.72-2.23-10.37-4.24,5.69-7.34,9.51a74.78,74.78,0,0,1-5,5.61q-8.51,8.2-17.21,8.21a7.66,7.66,0,0,1-4.25-1.08,3.92,3.92,0,0,1-1.73-3.6,9.1,9.1,0,0,1,.72-3.38,18.61,18.61,0,0,1,1.8-3.53,16.78,16.78,0,0,1,2.16-2.74q2.38-2.37,4-2.37c.2,0,.29,0,.29.14s-.36.65-1.08,1.22a18.52,18.52,0,0,0-4.17,4.68,9,9,0,0,0-1.66,4.76c0,2.68,1.9,4,5.69,3.81q9.28-.36,25.77-22.46a10.15,10.15,0,0,1,1.59-1.73l-1.15-.43a4.51,4.51,0,0,1-1.52.36c-1,0-1.51-.41-1.51-1.23,0-1.1.75-1.82,2.23-2.16.92-.24,2.09.17,3.53,1.23q2.81-3.17,5.4-6.05a53.44,53.44,0,0,1,4.83-4.68c1.44-1.25,2.59-1.87,3.45-1.87,1.15,0,1.73.53,1.73,1.58a3.08,3.08,0,0,1-.36,1.37c-.19.43-.43.65-.72.65s-.43-.1-.43-.43a1.46,1.46,0,0,1,.43-.87v-.29a.75.75,0,0,0-.29-.64q-1.87-1.23-11.52,12.16l1.66.15h1.94q16.71,0,20.88-8.64a8.28,8.28,0,0,0,.87-3.46,7,7,0,0,0-3-5.54,14.74,14.74,0,0,0-7.05-2.88,47.64,47.64,0,0,0-8.64-.79q-9.58,0-20.38,5.25-13.1,6.41-13.1,15.05,0,2.81,3.67,2.81,3.39,0,7.63-2.74a15,15,0,0,0,5-5c.34-.62.65-.93.94-.93s.43.19.29.57q-1.38,4-6.12,6.92a18.07,18.07,0,0,1-9.51,2.8c-3.89,0-5.69-1.24-5.4-3.74q1.08-9.44,11.59-16.06t25.2-6.55a57.86,57.86,0,0,1,10.88,1,18.84,18.84,0,0,1,8.64,3.74,8.6,8.6,0,0,1,3.45,6.77,9.51,9.51,0,0,1-.79,3.6,12.64,12.64,0,0,1-3.74,4.83,21.9,21.9,0,0,1-5.84,3.16,35.54,35.54,0,0,1-7,1.8,45.26,45.26,0,0,1-7.13.58c-1.25,0-2.45-.05-3.6-.14a27.35,27.35,0,0,1-3.09-.44c.28.92.79,2.57,1.51,5s1.63,5.52,2.73,9.36a32,32,0,0,0,1.37,3.46,29.28,29.28,0,0,0,2.09,3.53,13.7,13.7,0,0,0,2.45,2.73,4.4,4.4,0,0,0,2.73,1.08q3,0,5-6.12c.24-1,.51-1.44.8-1.44s.45.46.64,1.37a1.8,1.8,0,0,1,.08.58c0,1.24-.68,2.78-2,4.6Q294.77,366.36,291.46,366.36Zm11.31-7.92a3.14,3.14,0,0,1-2.81-1.65,6.52,6.52,0,0,1-1-3.31q0-4.32,6.26-12.1t10.23-7.85c2.44,0,3.67,1.3,3.67,3.89a5.42,5.42,0,0,1-.15,1.22,12,12,0,0,1-.21,1.37c.1.15.33.22.72.22a10.49,10.49,0,0,0,4.61-1.37c-.05.82-1.95,2-5.69,3.53q.8,2.37-4.75,9.07c-3.79,4.66-7,7-9.72,7Zm1.29-2.16q3.1,0,7.92-5.68t4.68-8a10.32,10.32,0,0,1-2.88-3.31q-2.44,0-7.06,5.91t-4.39,8.85C302.38,355.54,303,356.28,304.06,356.28Zm19,2.16a3.14,3.14,0,0,1-2.81-1.65,6.52,6.52,0,0,1-1-3.31q0-4.32,6.26-12.1t10.23-7.85c2.44,0,3.67,1.3,3.67,3.89a5.42,5.42,0,0,1-.15,1.22A12,12,0,0,1,339,340c.1.15.33.22.72.22a10.49,10.49,0,0,0,4.61-1.37c-.05.82-1.95,2-5.69,3.53q.8,2.37-4.75,9.07c-3.79,4.66-7,7-9.72,7Zm1.29-2.16q3.1,0,7.92-5.68t4.68-8a10.32,10.32,0,0,1-2.88-3.31q-2.44,0-7.06,5.91t-4.39,8.85C322.63,355.54,323.21,356.28,324.31,356.28Zm20.32,2.45a5.77,5.77,0,0,1-3.67-1.08c-.86-.77-1.3-2.11-1.3-4a11.88,11.88,0,0,1,1-4.18c.68-1.72,1.51-3.57,2.52-5.54s2-3.91,3-5.83a7.75,7.75,0,0,1-1.66.21q-2.16,0-2.16-1.65a1.44,1.44,0,0,1,.58-1.23,3,3,0,0,1,1.15-.5h.14a2.06,2.06,0,0,0,.51-.07H349c.87-1.11,1.76-2.28,2.67-3.53a9.13,9.13,0,0,1,3.09-2.88h.22a3.49,3.49,0,0,1,1.44.5c.77.44,1.15.87,1.15,1.3q0,.93-3.45,4.82a17.12,17.12,0,0,0,1.87.08h8.85c1.2-.05,2.24-.08,3.1-.08l1.44-.07c.14,0,.21.12.21.22q0,.65-8.49,1.73l-7.42,1c-1.68.24-2.59.39-2.73.44a15.55,15.55,0,0,0-2.45,2.95Q347,343.4,345.57,346a51.61,51.61,0,0,0-2.45,5,10.47,10.47,0,0,0-.94,3.6,2.53,2.53,0,0,0,.87,1.94,4.39,4.39,0,0,0,2.81.72,10.24,10.24,0,0,0,3.09-.58,30.63,30.63,0,0,0,3.39-1.29q1.65-.8,2.37-1.23a34.18,34.18,0,0,0,4.11-3,48.83,48.83,0,0,0,4.53-4.39c.68-.67,1.13-1,1.37-1s.22.1.22.29a3.84,3.84,0,0,1-1.08,1.87,37.64,37.64,0,0,1-3.89,4,31.87,31.87,0,0,1-4.68,3.46,23.66,23.66,0,0,1-5.69,2.59A17.43,17.43,0,0,1,344.63,358.73Z" transform="translate(-111.43 -313.37)"/></svg>