<svg id="Layer_1" data-name="Layer 1" xmlns="http://www.w3.org/2000/svg" viewBox="0 0 337.53 65.28"><defs><style>.cls-1{fill:#fff;}</style></defs><path class="cls-1" d="M141.65,412.12a5.5,5.5,0,0,1-1.6-.26,2.35,2.35,0,0,1-1.28-1.22,6.51,6.51,0,0,1-.51-2.94c0-.85.06-1.94.19-3.26s.34-2.69.51-4c.34-2.14.64-4.48.9-7a65.42,65.42,0,0,0,.45-7.62c0-.89,0-1.83-.07-2.81s-.13-1.92-.25-2.82a7.87,7.87,0,0,1-.9.38,2.69,2.69,0,0,1-.77.13.9.9,0,0,1-.89-.64,6,6,0,0,1-.2-1.6,5.12,5.12,0,0,1,1-3.26,9.3,9.3,0,0,1,3-2.31,20.2,20.2,0,0,1,5.57-2.11,25,25,0,0,1,5.7-.7,16.73,16.73,0,0,1,7,1.41,11.4,11.4,0,0,1,4.8,4,10.76,10.76,0,0,1,1.72,6.15,12.17,12.17,0,0,1-1.79,6.59,14.82,14.82,0,0,1-4.48,4.74,15.44,15.44,0,0,1-5.5,2.36c.68,1.07,1.41,2.14,2.17,3.2a35.27,35.27,0,0,0,2.44,2.88q3.65,3.78,7.42,3.78a10.49,10.49,0,0,0,1.79-.13.62.62,0,0,1,.64.32,2,2,0,0,1,.32,1.35,6.68,6.68,0,0,1-.51,2.49,4.65,4.65,0,0,1-1.73,2.05,5.86,5.86,0,0,1-3.33.83,8.1,8.1,0,0,1-4.8-1.66,20.65,20.65,0,0,1-4.16-4.23,45.3,45.3,0,0,1-3.45-5.5q-1.47-2.88-2.5-5.31-.26-.71-.45-1.35a5.41,5.41,0,0,1-.19-1.34,2.42,2.42,0,0,1,.71-1.79,2.78,2.78,0,0,1,1.4-.71,15.8,15.8,0,0,1,2.76-.19,8.06,8.06,0,0,0,5.5-1.85,6.09,6.09,0,0,0,2.11-4.8,5.07,5.07,0,0,0-2.43-4.68,10.84,10.84,0,0,0-5.82-1.47,20.94,20.94,0,0,0-5.89.9q-.19,4.15-.9,9.53c-.25,2.14-.49,4.25-.7,6.34s-.26,4-.26,5.7a18.06,18.06,0,0,0,.39,4,6.11,6.11,0,0,0,1.72,2.88,2.69,2.69,0,0,1,.9,1.92,3.19,3.19,0,0,1-1.6,2.56A6.94,6.94,0,0,1,141.65,412.12Zm40.31.19a10.34,10.34,0,0,1-7.1-2.37q-2.62-2.43-2.62-7.1a15.75,15.75,0,0,1,.57-4.23,19.39,19.39,0,0,1,1.67-3.84,3.41,3.41,0,0,1-1.54.64,1.13,1.13,0,0,1-1.09-.83,6.29,6.29,0,0,1-.25-1.73,4,4,0,0,1,.57-2.3,6.4,6.4,0,0,1,1.22-1.35,19.12,19.12,0,0,1,4.22-2.49,15.6,15.6,0,0,1,6.91-1.41q5.5,0,8.52,3.07c2,2.05,3.07,4.91,3.07,8.58a17,17,0,0,1-1.79,7.81,14.19,14.19,0,0,1-5,5.5A13.11,13.11,0,0,1,182,412.31Zm2-6.53a7.68,7.68,0,0,0,5.37-2,6.93,6.93,0,0,0,2.24-5.38c0-2.3-.74-3.95-2.24-4.93a9.22,9.22,0,0,0-5.18-1.47,10.59,10.59,0,0,0-2.43.26,13.65,13.65,0,0,0-2.05.64,16.44,16.44,0,0,0-1.6,2.88,8.61,8.61,0,0,0-.7,3.52,6.08,6.08,0,0,0,1.92,4.86A7,7,0,0,0,184,405.78Zm27.2,6.53a10.34,10.34,0,0,1-7.1-2.37q-2.62-2.43-2.63-7.1a15.76,15.76,0,0,1,.58-4.23,20,20,0,0,1,1.66-3.84,3.35,3.35,0,0,1-1.53.64,1.12,1.12,0,0,1-1.09-.83,6.32,6.32,0,0,1-.26-1.73,4,4,0,0,1,.58-2.3,6.4,6.4,0,0,1,1.22-1.35,19.12,19.12,0,0,1,4.22-2.49,15.57,15.57,0,0,1,6.91-1.41q5.5,0,8.51,3.07T225.3,397a16.91,16.91,0,0,1-1.8,7.81,14.16,14.16,0,0,1-5,5.5A13.11,13.11,0,0,1,211.15,412.31Zm2-6.53a7.68,7.68,0,0,0,5.37-2,7,7,0,0,0,2.24-5.38c0-2.3-.75-3.95-2.24-4.93a9.22,9.22,0,0,0-5.18-1.47,10.59,10.59,0,0,0-2.43.26,13.65,13.65,0,0,0-2.05.64,16.44,16.44,0,0,0-1.6,2.88,8.61,8.61,0,0,0-.71,3.52,6.08,6.08,0,0,0,1.92,4.86A7.05,7.05,0,0,0,213.14,405.78Zm26.43,6.53c-2.6,0-4.48-.86-5.63-2.56a12.35,12.35,0,0,1-1.67-6.72c0-1,0-1.94.13-2.88l.39-2.82c.12-.94.25-1.85.38-2.75s.24-1.75.32-2.56a9.6,9.6,0,0,1-2.69.38c-.94,0-1.41-.38-1.41-1.15a5.88,5.88,0,0,1,1.09-2.94,21.81,21.81,0,0,1,2.69-3.52,25,25,0,0,1,3.26-2.88,5.17,5.17,0,0,1,2.82-1.22q1.41,0,1.41,2.43a7.16,7.16,0,0,1-.13,1.35c0,.42-.11.87-.19,1.34q1.22-.26,2.43-.45a17.47,17.47,0,0,1,2.43-.19,4.06,4.06,0,0,1,2.24.51,2.15,2.15,0,0,1,.83,2,6.82,6.82,0,0,1-.76,3.07c-.47,1-1,1.54-1.6,1.54a6.23,6.23,0,0,1-.64-.07c-.3,0-.66-.1-1.09-.19s-1.26-.26-2.11-.38a20.82,20.82,0,0,0-3.08-.2c-.29,1.33-.57,2.69-.83,4.1a24.69,24.69,0,0,0-.32,3.71c0,2.48.62,4.16,1.86,5.06a9.13,9.13,0,0,0,5.37,1.34,2.36,2.36,0,0,1,1.54.39,1.38,1.38,0,0,1,.45,1.21,4.29,4.29,0,0,1-2.18,3.59A9.26,9.26,0,0,1,239.57,412.31Zm41.76,0a18.55,18.55,0,0,1-6.72-1,6,6,0,0,1-3.26-2.69,8.76,8.76,0,0,1-.9-4.1,18.85,18.85,0,0,1,.19-2.56c.13-1,.28-2.09.45-3.32a78.18,78.18,0,0,0,1.15-12.48,47.56,47.56,0,0,0-.32-6.08,11.41,11.41,0,0,0-1.66-4.87,6.71,6.71,0,0,1-.45-.77,1.84,1.84,0,0,1-.19-.7,2.31,2.31,0,0,1,.89-1.6,8.36,8.36,0,0,1,2.18-1.41,6,6,0,0,1,2.43-.57,2.45,2.45,0,0,1,2.69,1.72,16.51,16.51,0,0,1,.58,4.93c0,.81-.09,2.11-.26,3.91s-.43,4-.77,6.72-.6,4.92-.77,6.84-.25,3.46-.25,4.61a10.44,10.44,0,0,0,.57,3.91,3.57,3.57,0,0,0,2,1.79,12.13,12.13,0,0,0,4,.51,29.66,29.66,0,0,0,5.25-.45,24.91,24.91,0,0,0,4.86-1.53,5.8,5.8,0,0,1,.58-.2,2,2,0,0,1,.45-.06,1.39,1.39,0,0,1,1.08.7,3.27,3.27,0,0,1,.52,2q0,2.82-3.08,4.41Q288.5,412.31,281.33,412.31Zm26.88,0a10.34,10.34,0,0,1-7.1-2.37q-2.62-2.43-2.62-7.1a15.75,15.75,0,0,1,.57-4.23,19.39,19.39,0,0,1,1.67-3.84,3.41,3.41,0,0,1-1.54.64,1.13,1.13,0,0,1-1.09-.83,6.29,6.29,0,0,1-.25-1.73,4,4,0,0,1,.57-2.3,6.4,6.4,0,0,1,1.22-1.35,19.12,19.12,0,0,1,4.22-2.49,15.6,15.6,0,0,1,6.91-1.41q5.5,0,8.52,3.07c2,2.05,3.07,4.91,3.07,8.58a17,17,0,0,1-1.79,7.81,14.19,14.19,0,0,1-5,5.5A13.11,13.11,0,0,1,308.21,412.31Zm2-6.53a7.68,7.68,0,0,0,5.37-2,6.93,6.93,0,0,0,2.24-5.38c0-2.3-.74-3.95-2.24-4.93a9.22,9.22,0,0,0-5.18-1.47,10.59,10.59,0,0,0-2.43.26,13.65,13.65,0,0,0-2,.64,16.44,16.44,0,0,0-1.6,2.88,8.61,8.61,0,0,0-.7,3.52,6.08,6.08,0,0,0,1.92,4.86A7,7,0,0,0,310.2,405.78Zm27.2,6.53a10.34,10.34,0,0,1-7.1-2.37q-2.62-2.43-2.63-7.1a15.76,15.76,0,0,1,.58-4.23,20,20,0,0,1,1.66-3.84,3.35,3.35,0,0,1-1.53.64,1.12,1.12,0,0,1-1.09-.83,6.32,6.32,0,0,1-.26-1.73,4,4,0,0,1,.58-2.3,6.4,6.4,0,0,1,1.22-1.35,19.12,19.12,0,0,1,4.22-2.49A15.57,15.57,0,0,1,340,385.3q5.51,0,8.51,3.07t3.08,8.58a16.91,16.91,0,0,1-1.8,7.81,14.16,14.16,0,0,1-5,5.5A13.11,13.11,0,0,1,337.4,412.31Zm2-6.53a7.68,7.68,0,0,0,5.37-2,7,7,0,0,0,2.24-5.38c0-2.3-.75-3.95-2.24-4.93a9.22,9.22,0,0,0-5.18-1.47,10.59,10.59,0,0,0-2.43.26,13.65,13.65,0,0,0-2,.64,16.44,16.44,0,0,0-1.6,2.88,8.61,8.61,0,0,0-.71,3.52,6.08,6.08,0,0,0,1.92,4.86A7.05,7.05,0,0,0,339.39,405.78Zm20.74,23.36a4,4,0,0,1-3-1.09c-.73-.68-1.09-1.94-1.09-3.77a36.86,36.86,0,0,1,.38-4.68c.3-1.87.64-3.86,1-6q.44-2.49.83-5.25T359,403a39.6,39.6,0,0,0,.32-4.8,14.06,14.06,0,0,0-.57-4.23,3.16,3.16,0,0,0-2.18-2.3,6.5,6.5,0,0,1-1.15-.58,1.11,1.11,0,0,1-.51-1,3.69,3.69,0,0,1,.7-2,5.92,5.92,0,0,1,2-1.86,5.65,5.65,0,0,1,3-.83,3.12,3.12,0,0,1,3,1.53,8,8,0,0,1,.83,3.91q0,.7-.06,1.47c0,.47-.11,1-.19,1.47a18.46,18.46,0,0,1,4.86-6,10.65,10.65,0,0,1,6.91-2.5,7.39,7.39,0,0,1,6,2.62,10.27,10.27,0,0,1,2.24,7,20.27,20.27,0,0,1-1,6.4,19.63,19.63,0,0,1-2.88,5.57,14.27,14.27,0,0,1-4.48,4,11.32,11.32,0,0,1-5.76,1.47,9.27,9.27,0,0,1-4-.83,10.22,10.22,0,0,1-3-2.05c-.17,1.11-.34,2.45-.51,4s-.19,3.05-.19,4.42a10.84,10.84,0,0,0,.51,3.71,4,4,0,0,0,2.18,2.05,1.05,1.05,0,0,1,.7,1,4.41,4.41,0,0,1-.51,1.6,5.23,5.23,0,0,1-1.73,2A5.33,5.33,0,0,1,360.13,429.14Zm11.4-23.74a7,7,0,0,0,5.63-2.31,7.89,7.89,0,0,0,2-5.31,5.45,5.45,0,0,0-1.41-4,5,5,0,0,0-3.77-1.47,6.72,6.72,0,0,0-4.29,1.47,12.43,12.43,0,0,0-3.2,3.71,26.81,26.81,0,0,0-2.11,4.93A10.23,10.23,0,0,0,371.53,405.4Zm23-25.73a4.25,4.25,0,0,1-2.88-1.09,3.74,3.74,0,0,1-1.09-2.88,4.42,4.42,0,0,1,1.34-3.2,4.27,4.27,0,0,1,3.27-1.22,4.14,4.14,0,0,1,2.88,1.09,3.6,3.6,0,0,1,1,2.88,4.69,4.69,0,0,1-1.28,3.2A4.41,4.41,0,0,1,394.48,379.67Zm.06,32.45a4.24,4.24,0,0,1-3-1,5.06,5.06,0,0,1-1.08-3.65,16.15,16.15,0,0,1,.25-2.88c.22-.93.45-1.85.71-2.75a23.25,23.25,0,0,0,.7-2.88,14.89,14.89,0,0,0,.32-3.13,7.37,7.37,0,0,0-.32-2.18,2.46,2.46,0,0,0-1.41-1.6,15.79,15.79,0,0,1-1.47-.9,1.64,1.64,0,0,1-.58-1.28,3.15,3.15,0,0,1,.84-1.92,6.86,6.86,0,0,1,2.17-1.72,5.87,5.87,0,0,1,2.88-.77,2.89,2.89,0,0,1,2.31.83,4.27,4.27,0,0,1,1,2.11,13.48,13.48,0,0,1,.26,2.63,25.68,25.68,0,0,1-.32,4c-.22,1.28-.43,2.47-.64,3.58-.17.81-.3,1.56-.39,2.24a16.58,16.58,0,0,0-.13,1.92,3.46,3.46,0,0,0,.77,2.43,8.16,8.16,0,0,0,2.18,1.48,1,1,0,0,1,.57,1,4.41,4.41,0,0,1-.51,1.6,5.24,5.24,0,0,1-1.79,2A5.49,5.49,0,0,1,394.54,412.12Zm14,.06c-1.54,0-2.22-.51-2.05-1.54.47-1.83.86-3.69,1.15-5.56a30.75,30.75,0,0,0,.52-5.51,19.32,19.32,0,0,0-.45-4.93,4,4,0,0,0-1.09-2.17,4.41,4.41,0,0,0-1.73-1,3.57,3.57,0,0,1-.83-.51,1.25,1.25,0,0,1-.32-.9,3.78,3.78,0,0,1,.7-2,6,6,0,0,1,2-1.86,5.63,5.63,0,0,1,3-.83,3.1,3.1,0,0,1,3,1.53,7.9,7.9,0,0,1,.84,3.91,23.11,23.11,0,0,1-.32,3.58c-.22,1.32-.43,2.52-.64,3.59l.19.06a35.79,35.79,0,0,1,3.07-6.27,17.33,17.33,0,0,1,4.29-4.74,9.27,9.27,0,0,1,5.63-1.79,6.49,6.49,0,0,1,5.18,2.05,7.46,7.46,0,0,1,1.8,5.12,9.2,9.2,0,0,1-.32,2.43c-.17.77-.37,1.51-.58,2.24s-.4,1.39-.58,2.11a13.37,13.37,0,0,0-.19,2.18,4.85,4.85,0,0,0,3.46,4.93,1.23,1.23,0,0,1,.89,1.15,5.32,5.32,0,0,1-.38,1.66,5.15,5.15,0,0,1-1.41,2.05,4.42,4.42,0,0,1-3,.9,4.74,4.74,0,0,1-4-1.8,7.48,7.48,0,0,1-1.41-4.67,16.62,16.62,0,0,1,.32-3.2c.25-1.11.51-2.13.77-3.07.17-.73.32-1.43.44-2.11a8.09,8.09,0,0,0,.26-1.92c0-2-1-3-3.07-3a6.34,6.34,0,0,0-4.61,2,16.8,16.8,0,0,0-3.39,4.86,41,41,0,0,0-2.31,5.95v1.54a5.67,5.67,0,0,1-1.34,3.9A4.32,4.32,0,0,1,408.56,412.18Zm39.05,17a13,13,0,0,1-7.62-2,6,6,0,0,1-2.81-5.12,6.44,6.44,0,0,1,1.41-4.1,4.74,4.74,0,0,1,3.84-1.79c.89,0,1.34.25,1.34.77a3.22,3.22,0,0,1-.19,1,5,5,0,0,0-.13,1.15,2.78,2.78,0,0,0,2.05,2.63,12.37,12.37,0,0,0,4.93.89,18.3,18.3,0,0,0,3.64-.38,8.49,8.49,0,0,0,3.08-1.22,2.36,2.36,0,0,0,1.28-2.11,2.31,2.31,0,0,0-1.48-2.18,14,14,0,0,0-3.71-1.08c-1.49-.22-3-.43-4.61-.64a15.75,15.75,0,0,1-4-.9,8,8,0,0,1-3.14-1.73,3.56,3.56,0,0,1-1-2.62q0-3,3.64-4.8a7.53,7.53,0,0,1-3.2-3.07,9.56,9.56,0,0,1-1-4.42,11.51,11.51,0,0,1,1.6-5.89,12.44,12.44,0,0,1,4.86-4.48,16.8,16.8,0,0,1,8.13-1.79,22.48,22.48,0,0,1,4.42.45,8.17,8.17,0,0,1,3.71,1.53,3.7,3.7,0,0,1,1.54,3.2,5.6,5.6,0,0,1-.32,1.73,1.21,1.21,0,0,1-1.22.9,5,5,0,0,1-1-.13c-.43-.13-.82-.23-1.16-.32a13.29,13.29,0,0,1,.2,1.41,10.29,10.29,0,0,1,.12,1.6,10.42,10.42,0,0,1-2.56,6.85,11.05,11.05,0,0,1-7.48,3.58,10.6,10.6,0,0,0-2.69.45c-.56.17-.83.49-.83,1a1,1,0,0,0,.76,1,9.51,9.51,0,0,0,2,.38,43,43,0,0,1,6.91,1.09,9.92,9.92,0,0,1,4.67,2.43,6.6,6.6,0,0,1,1.73,4.87,9.52,9.52,0,0,1-2.18,6.27,13.59,13.59,0,0,1-5.69,4.16A20.38,20.38,0,0,1,447.61,429.14ZM450,400.53a6.37,6.37,0,0,0,4.61-1.6,5.49,5.49,0,0,0,1.66-4.16,8.39,8.39,0,0,0-.12-1.41c-.09-.51-.18-.93-.26-1.28a8.52,8.52,0,0,0-2-.38,13.33,13.33,0,0,0-1.86-.13,9.52,9.52,0,0,0-5.31,1.28,4,4,0,0,0-1.92,3.52,3.65,3.65,0,0,0,1.41,3.07A6,6,0,0,0,450,400.53Zm21.78.39a1.84,1.84,0,0,1-1.15-.39,1.28,1.28,0,0,1-.51-1.09c0-3.49-.07-7.12-.19-10.88s-.26-7.57-.39-11.32-.19-7.39-.19-10.88a2.39,2.39,0,0,1,.7-1.86,2.47,2.47,0,0,1,1.73-.64,2.39,2.39,0,0,1,1.67.64,2.29,2.29,0,0,1,.76,1.86q0,5.24-.19,10.88c-.08,3.75-.21,7.53-.38,11.32s-.19,7.39-.19,10.88a1.24,1.24,0,0,1-.58,1.09A2,2,0,0,1,471.82,400.92Zm.07,10.94a2.77,2.77,0,0,1-2.12-.9,2.93,2.93,0,0,1-.83-2,2.89,2.89,0,0,1,.83-2.12,2.79,2.79,0,0,1,2.12-.89,2.65,2.65,0,0,1,2,.89,2.77,2.77,0,0,1,.9,2.12,2.8,2.8,0,0,1-.9,2A2.62,2.62,0,0,1,471.89,411.86Z" transform="translate(-137.23 -363.86)"/></svg>