<svg id="Layer_1" data-name="Layer 1" xmlns="http://www.w3.org/2000/svg" viewBox="0 0 85.74 64.45"><defs><style>.cls-1{fill:#fff;}.cls-2{fill:#ddd;}</style></defs><path class="cls-1" d="M272.64,384.92c.34-.33-.59-4.37,3.59-7.49s7-1.26,7.43-1.4,2.25-8.29,10.08-10.41,16,1.86,17.91,8.49c1.75,6.07.39,10.15.59,10.41s4,.14,6.17,3.65,1.4,5.71,1.4,5.71l-13.93,4.31H283.59S264,393,263.76,392.09a6.21,6.21,0,0,1,3.45-5.78C270,384.73,272.05,385.52,272.64,384.92Z" transform="translate(-263.58 -365.05)"/><path class="cls-2" d="M278.16,399.31s-7.43,1.56-12.46-2.33c-3-2.35-1.92-6.15-1.92-6.15a11.85,11.85,0,0,0,6.54,2.78,61.38,61.38,0,0,0,9.29.4s1.22,2.09,5.84,3.05c5.78,1.2,8.82-1.76,8.82-1.76s1.59,1.9,7.16,2,8.7-3.76,9.22-3.85a7.52,7.52,0,0,0,4.85.86,9.8,9.8,0,0,0,4.42-1.72,5.47,5.47,0,0,1-2.5,5c-2.27,1.5-6.23,1.66-6.23,1.66a7.42,7.42,0,0,1-3.32,4,13.71,13.71,0,0,1-10.1,1.13c-4-1.2-5-3-5-3a13.09,13.09,0,0,1-7.73,1.16A11.45,11.45,0,0,1,278.16,399.31Z" transform="translate(-263.58 -365.05)"/><path class="cls-1" d="M341.14,404.82h0v-.1a8.15,8.15,0,0,0-8.15-8.15,7.88,7.88,0,0,0-1.69.18,10.79,10.79,0,0,0-18.37-2.7,9.4,9.4,0,0,0-13.59,7.45,10.17,10.17,0,0,0,.42,20.33,10.86,10.86,0,0,0,1.28-.08,13.53,13.53,0,0,0,20.82,4.68,10.73,10.73,0,0,0,16.71-5.68,8.17,8.17,0,1,0,2.57-15.93Z" transform="translate(-263.58 -365.05)"/><path class="cls-2" d="M346,406.38c1.85,1.87.54,6.16-.73,7.56-2.51,2.74-7.11,2.1-9,1.71-.49-.11-.58-.07-.74,0s-.21.24-.37.57a8.84,8.84,0,0,1-5.37,4.76c-3.38,1-6.57-.54-8-1.49-.57-.36-.59-.37-.85-.36a1.52,1.52,0,0,0-.82.43,13.42,13.42,0,0,1-9.17,2.66,10.42,10.42,0,0,1-8.22-4.61c-.18-.28-.37-.52-.58-.54s-.53.23-.74.44c-2,1.92-8.2,2.5-10.27-.78a10.28,10.28,0,0,0,8.68,5.08,11,11,0,0,0,1.29-.08,13.53,13.53,0,0,0,20.82,4.68,10.73,10.73,0,0,0,16.71-5.68A8.16,8.16,0,0,0,349.32,413,8.3,8.3,0,0,0,346,406.38Z" transform="translate(-263.58 -365.05)"/></svg>