<svg id="Layer_1" data-name="Layer 1" xmlns="http://www.w3.org/2000/svg" viewBox="0 0 70.44 64"><defs><style>.cls-1{fill:#fac01d;}.cls-2{fill:#fde269;}.cls-3{fill:#faa625;}.cls-4{fill:#fff;}.cls-5{fill:#ddd;}</style></defs><path class="cls-1" d="M287,383.41c-4.58,5.88-4.5,16.32,1.35,21.5,6.64,5.88,16,5.82,21.86.41a16.23,16.23,0,0,0,.41-23.38C304.32,375.8,293.13,375.48,287,383.41Z" transform="translate(-270.59 -364.52)"/><path class="cls-2" d="M294.3,381.39c-1.81-.8-3.78,1.38-4.65,2.87s-1.66,4.42.18,5.17,3.15-.52,4.48-2.7S296.37,382.31,294.3,381.39Z" transform="translate(-270.59 -364.52)"/><path class="cls-3" d="M299,373.2c-.43.82-.29,1.45.58,1.65s6.3,1.09,6.76,1.12c.66,0,.91-.46.83-1s-1.41-8.69-1.54-9.44S304.73,364,304,365,299.34,372.58,299,373.2Zm14.05,5.63c-.86.26-.83.79-.38,1.45s3.61,5.47,3.89,5.8a.75.75,0,0,0,1.21-.08c.41-.5,5.58-7.75,6-8.21.62-.74.25-1.53-.7-1.28C322.31,376.7,313.59,378.67,313.06,378.83Zm6.5,14a1,1,0,0,0-1.62.54c-.21.78-1.12,6.5-1.2,7a.74.74,0,0,0,.91.87c.62-.12,9.16-1.39,9.73-1.53,1-.25,1.33-1.24.29-2C327,397.2,320.14,393.12,319.56,392.79Zm-6.84,13.54a.9.9,0,0,1,1.41.67c.16.74,2,8.36,2.28,9.77a.86.86,0,0,1-1.32.87c-.67-.41-7.87-5.43-8.33-5.84-.66-.58-.2-1.18.12-1.49C307.54,409.69,312.1,406.67,312.72,406.33Zm-20.05,4.18c-.83-.08-1.08.67-.95,1.33s1.37,9.06,1.45,9.69a.89.89,0,0,0,1.7.37c.62-.91,4.88-7.72,5.22-8.37.62-1.15.16-1.4-.46-1.69A68.25,68.25,0,0,0,292.67,410.51Zm-11.92-9.64c.58-1,1.32-.71,1.86.2.37.62,3.48,4.81,3.77,5.26s.42,1.32-.49,1.53-8.33,2.16-9.49,2.37-1.82-.7-1.08-1.7C275.75,408,280.42,401.41,280.75,400.87Zm-1.57-7.21c1.06.47,1.55.3,1.78-.46a58.72,58.72,0,0,0,1.2-6.59c0-.67-.25-1.32-1.29-1.16s-8.49,1.21-9.44,1.54a1.08,1.08,0,0,0-.29,2C272,389.44,278.43,393.33,279.18,393.66Zm12.88-17.4a.91.91,0,0,0-.13-1.53c-.53-.37-7.19-5.18-8-5.84s-1.66-.37-1.41.95c.18,1,2.3,9.28,2.45,9.86s.66,1,1.24.58S291.43,376.76,292.06,376.26Z" transform="translate(-270.59 -364.52)"/><path class="cls-4" d="M293.72,408.52c.34-.34-.59-4.38,3.59-7.5s7-1.26,7.43-1.39,2.25-8.3,10.08-10.42,16,1.86,17.91,8.49c1.75,6.07.39,10.15.59,10.42s4,.13,6.17,3.64,1.4,5.71,1.4,5.71L327,421.78H304.67s-19.63-5.17-19.83-6.1a6.19,6.19,0,0,1,3.45-5.77C291.07,408.32,293.13,409.11,293.72,408.52Z" transform="translate(-270.59 -364.52)"/><path class="cls-5" d="M299.24,422.9s-7.43,1.56-12.46-2.33c-3-2.35-1.92-6.15-1.92-6.15a11.85,11.85,0,0,0,6.54,2.78,61.38,61.38,0,0,0,9.29.4s1.22,2.09,5.84,3c5.78,1.2,8.82-1.75,8.82-1.75s1.59,1.89,7.16,2,8.7-3.76,9.22-3.85a7.52,7.52,0,0,0,4.85.86,9.8,9.8,0,0,0,4.42-1.72,5.47,5.47,0,0,1-2.5,5c-2.27,1.5-6.23,1.66-6.23,1.66a7.42,7.42,0,0,1-3.32,4,13.76,13.76,0,0,1-10.1,1.14c-4.05-1.21-5.05-3.05-5.05-3.05a13.13,13.13,0,0,1-7.73,1.17A11.49,11.49,0,0,1,299.24,422.9Z" transform="translate(-270.59 -364.52)"/></svg>