<svg id="Layer_1" data-name="Layer 1" xmlns="http://www.w3.org/2000/svg" viewBox="0 0 81 48"><defs><style>.cls-1{fill:#61afe1;}</style></defs><path class="cls-1" d="M284.17,388.94a3,3,0,0,0,0,6h2.5v-6Z" transform="translate(-281.17 -388.94)"/><path class="cls-1" d="M291.67,394.94h5v-6h-5Z" transform="translate(-281.17 -388.94)"/><path class="cls-1" d="M301.67,394.94h5v-6h-5Z" transform="translate(-281.17 -388.94)"/><path class="cls-1" d="M311.67,394.94h5v-6h-5Z" transform="translate(-281.17 -388.94)"/><path class="cls-1" d="M321.67,394.94h5v-6h-5Z" transform="translate(-281.17 -388.94)"/><path class="cls-1" d="M331.67,394.94h5v-6h-5Z" transform="translate(-281.17 -388.94)"/><path class="cls-1" d="M341.67,394.94h2.5a3,3,0,0,0,0-6h-2.5Z" transform="translate(-281.17 -388.94)"/><path class="cls-1" d="M299.17,402.94a3,3,0,0,0,0,6h2.5v-6Z" transform="translate(-281.17 -388.94)"/><path class="cls-1" d="M306.67,408.94h5v-6h-5Z" transform="translate(-281.17 -388.94)"/><path class="cls-1" d="M316.67,408.94h5v-6h-5Z" transform="translate(-281.17 -388.94)"/><path class="cls-1" d="M326.67,408.94h5v-6h-5Z" transform="translate(-281.17 -388.94)"/><path class="cls-1" d="M336.67,408.94h5v-6h-5Z" transform="translate(-281.17 -388.94)"/><path class="cls-1" d="M346.67,408.94h5v-6h-5Z" transform="translate(-281.17 -388.94)"/><path class="cls-1" d="M356.67,408.94h2.5a3,3,0,0,0,0-6h-2.5Z" transform="translate(-281.17 -388.94)"/><path class="cls-1" d="M281.17,419.94a3,3,0,0,1,3-3h2.5v6h-2.5A3,3,0,0,1,281.17,419.94Z" transform="translate(-281.17 -388.94)"/><path class="cls-1" d="M296.67,422.94h-5v-6h5Z" transform="translate(-281.17 -388.94)"/><path class="cls-1" d="M306.67,422.94h-5v-6h5Z" transform="translate(-281.17 -388.94)"/><path class="cls-1" d="M316.67,422.94h-5v-6h5Z" transform="translate(-281.17 -388.94)"/><path class="cls-1" d="M326.67,422.94h-5v-6h5Z" transform="translate(-281.17 -388.94)"/><path class="cls-1" d="M336.67,422.94h-5v-6h5Z" transform="translate(-281.17 -388.94)"/><path class="cls-1" d="M344.17,422.94h-2.5v-6h2.5a3,3,0,0,1,0,6Z" transform="translate(-281.17 -388.94)"/><path class="cls-1" d="M299.17,430.94a3,3,0,0,0,0,6h2.5v-6Z" transform="translate(-281.17 -388.94)"/><path class="cls-1" d="M306.67,436.94h5v-6h-5Z" transform="translate(-281.17 -388.94)"/><path class="cls-1" d="M316.67,436.94h5v-6h-5Z" transform="translate(-281.17 -388.94)"/><path class="cls-1" d="M326.67,436.94h5v-6h-5Z" transform="translate(-281.17 -388.94)"/><path class="cls-1" d="M336.67,436.94h5v-6h-5Z" transform="translate(-281.17 -388.94)"/><path class="cls-1" d="M346.67,436.94h5v-6h-5Z" transform="translate(-281.17 -388.94)"/><path class="cls-1" d="M356.67,436.94h2.5a3,3,0,0,0,0-6h-2.5Z" transform="translate(-281.17 -388.94)"/></svg>