<svg id="Layer_1" data-name="Layer 1" xmlns="http://www.w3.org/2000/svg" viewBox="0 0 56.75 58.53"><defs><style>.cls-1{fill:#61afe1;}.cls-2{fill:#fff;}.cls-3{fill:#ddd;}</style></defs><path class="cls-1" d="M289.82,404a.68.68,0,0,0-.34-.06c-.68,0-4.2,3.19-5.12,5.45A3,3,0,0,0,286,413.3a3.06,3.06,0,0,0,2.32,0,3.1,3.1,0,0,0,1.63-1.65C290.65,409.93,290.85,404.39,289.82,404Zm5.77,11.08a.79.79,0,0,0-.34-.06c-.68.05-4.19,3.19-5.12,5.46a3,3,0,0,0,5.61,2.28C296.44,421,296.62,415.47,295.59,415.05Zm11.62-9.13a.68.68,0,0,0-.34-.06c-.68.05-4.2,3.19-5.12,5.46a3,3,0,0,0,5.6,2.27C308.05,411.88,308.24,406.34,307.21,405.92Zm6.4,10.08a.78.78,0,0,0-.34-.05c-.67.05-4.2,3.19-5.12,5.45a3,3,0,1,0,5.6,2.28C314.45,422,314.64,416.43,313.61,416Zm10-9.61a.7.7,0,0,0-.35-.05c-.67,0-4.2,3.18-5.12,5.45a3,3,0,1,0,5.6,2.27C324.45,412.35,324.64,406.81,323.62,406.39Z" transform="translate(-277.66 -367.03)"/><path class="cls-2" d="M326.62,381.1V381a7.76,7.76,0,0,0-7.76-7.76,7.62,7.62,0,0,0-1.6.17,10.28,10.28,0,0,0-17.5-2.57,8.93,8.93,0,0,0-12.94,7.09,9.68,9.68,0,0,0,.4,19.35,8.46,8.46,0,0,0,1.23-.07,12.87,12.87,0,0,0,19.82,4.45,10.22,10.22,0,0,0,15.91-5.4,7.91,7.91,0,0,0,2.45.4,7.78,7.78,0,1,0,0-15.56Z" transform="translate(-277.66 -367.03)"/><path class="cls-3" d="M331.19,382.58c1.76,1.78.52,5.87-.7,7.19-2.38,2.62-6.76,2-8.52,1.63-.47-.1-.55-.07-.7,0s-.21.22-.36.54a8.36,8.36,0,0,1-5.11,4.54c-3.21,1-6.25-.52-7.67-1.43-.53-.34-.56-.34-.8-.34a1.41,1.41,0,0,0-.78.41,12.77,12.77,0,0,1-8.73,2.53,9.89,9.89,0,0,1-7.83-4.39c-.17-.26-.35-.49-.56-.51s-.49.22-.7.41c-1.88,1.84-7.81,2.38-9.78-.74a9.76,9.76,0,0,0,8.26,4.83,8.3,8.3,0,0,0,1.23-.07,12.87,12.87,0,0,0,19.82,4.45,10.22,10.22,0,0,0,15.91-5.4,7.91,7.91,0,0,0,2.45.4,7.78,7.78,0,0,0,4.57-14.08Z" transform="translate(-277.66 -367.03)"/></svg>