<svg id="Layer_1" data-name="Layer 1" xmlns="http://www.w3.org/2000/svg" viewBox="0 0 59.67 59.63"><defs><style>.cls-1{fill:#35b0e5;}.cls-2{fill:#fff;}.cls-3{fill:#ddd;}</style></defs><path class="cls-1" d="M288.89,410.92a1.16,1.16,0,1,1-1.95,1.15l-4.2-7.13a1.16,1.16,0,1,1,1.94-1.15Z" transform="translate(-276.2 -366.59)"/><path class="cls-1" d="M289.94,406.76a1.16,1.16,0,1,1,0,2.26l-8.27.07a1.16,1.16,0,1,1,0-2.25Z" transform="translate(-276.2 -366.59)"/><path class="cls-1" d="M286.86,403.77a1.33,1.33,0,0,1,1.7-.7,1.32,1.32,0,0,1,.27,1.81l-4.07,7.21a1.16,1.16,0,1,1-2-1.11Zm10.44,20.47a1.16,1.16,0,1,1-1.94,1.14l-4.2-7.12a1.17,1.17,0,1,1,1.95-1.15Z" transform="translate(-276.2 -366.59)"/><path class="cls-1" d="M298.36,420.08a1.16,1.16,0,1,1,0,2.26l-8.27.08a1.16,1.16,0,1,1,0-2.26Z" transform="translate(-276.2 -366.59)"/><path class="cls-1" d="M295.28,417.09a1.16,1.16,0,1,1,2,1.11l-4.07,7.2a1.16,1.16,0,1,1-2-1.11Zm13.83-1.71a1.16,1.16,0,1,1-1.95,1.15L303,409.4a1.16,1.16,0,1,1,2-1.14Z" transform="translate(-276.2 -366.59)"/><path class="cls-1" d="M310.16,411.22a1.32,1.32,0,0,1,1.45,1.12,1.3,1.3,0,0,1-1.42,1.14l-8.28.08a1.16,1.16,0,1,1,0-2.26Z" transform="translate(-276.2 -366.59)"/><path class="cls-1" d="M307.09,408.23a1.16,1.16,0,1,1,2,1.11L305,416.55a1.16,1.16,0,1,1-2-1.11Zm22.16,3.63A1.16,1.16,0,1,1,327.3,413l-4.2-7.12a1.17,1.17,0,1,1,1.95-1.15Z" transform="translate(-276.2 -366.59)"/><path class="cls-1" d="M330.3,407.7a1.16,1.16,0,1,1,0,2.26l-8.27.08a1.17,1.17,0,1,1,0-2.27Z" transform="translate(-276.2 -366.59)"/><path class="cls-1" d="M327.23,404.71a1.16,1.16,0,1,1,2,1.11L325.12,413a1.16,1.16,0,1,1-2-1.11Zm-7,19.5a1.16,1.16,0,1,1-1.94,1.15l-4.2-7.13a1.16,1.16,0,1,1,1.94-1.15Z" transform="translate(-276.2 -366.59)"/><path class="cls-1" d="M321.31,420.06a1.16,1.16,0,1,1,0,2.25l-8.28.08a1.16,1.16,0,1,1,0-2.26Z" transform="translate(-276.2 -366.59)"/><path class="cls-1" d="M318.24,417.07a1.16,1.16,0,1,1,2,1.11l-4.07,7.2a1.16,1.16,0,1,1-2-1.11Z" transform="translate(-276.2 -366.59)"/><path class="cls-2" d="M327.69,381.37h0s0-.06,0-.1a8.16,8.16,0,0,0-8.16-8.16,7.81,7.81,0,0,0-1.69.18,10.81,10.81,0,0,0-18.4-2.69,9.28,9.28,0,0,0-4.24-1,9.41,9.41,0,0,0-9.36,8.48,10.18,10.18,0,0,0,.41,20.35,9.12,9.12,0,0,0,1.29-.08A13.55,13.55,0,0,0,308.39,403a10.73,10.73,0,0,0,16.72-5.68,8.1,8.1,0,0,0,2.57.42,8.19,8.19,0,0,0,0-16.37Z" transform="translate(-276.2 -366.59)"/><path class="cls-3" d="M332.49,382.94c1.86,1.87.55,6.16-.73,7.56-2.51,2.75-7.11,2.11-9,1.71-.5-.11-.58-.07-.75,0s-.21.23-.37.57a8.85,8.85,0,0,1-5.37,4.77c-3.39,1-6.57-.55-8.06-1.5-.57-.36-.59-.37-.85-.37a1.59,1.59,0,0,0-.82.44,13.45,13.45,0,0,1-9.18,2.66,10.46,10.46,0,0,1-8.24-4.61c-.17-.29-.36-.52-.58-.55s-.52.24-.73.44c-2,1.93-8.22,2.51-10.29-.77a10.31,10.31,0,0,0,8.69,5.08,9.12,9.12,0,0,0,1.29-.08A13.55,13.55,0,0,0,308.39,403a10.73,10.73,0,0,0,16.72-5.68,8.1,8.1,0,0,0,2.57.42,8.18,8.18,0,0,0,4.81-14.8Z" transform="translate(-276.2 -366.59)"/></svg>