<svg id="Layer_1" data-name="Layer 1" xmlns="http://www.w3.org/2000/svg" viewBox="0 0 57.72 57.91"><defs><style>.cls-1{fill:#fac01d;}.cls-2{fill:#fde269;}.cls-3{fill:#faa625;}</style></defs><path class="cls-1" d="M293.44,386.5c-4.57,5.88-4.49,16.33,1.36,21.5,6.63,5.88,16,5.82,21.85.41a16.22,16.22,0,0,0,.41-23.38C310.8,378.89,299.61,378.57,293.44,386.5Z" transform="translate(-277.08 -367.61)"/><path class="cls-2" d="M300.79,384.48c-1.81-.8-3.79,1.38-4.65,2.87s-1.66,4.42.17,5.17,3.16-.52,4.48-2.7S302.86,385.4,300.79,384.48Z" transform="translate(-277.08 -367.61)"/><path class="cls-3" d="M305.5,376.29c-.44.82-.29,1.45.58,1.65s6.29,1.09,6.75,1.12c.67,0,.91-.46.83-1s-1.41-8.69-1.53-9.44-.91-1.49-1.66-.49S305.83,375.67,305.5,376.29Zm14,5.63c-.85.26-.83.79-.37,1.45s3.6,5.47,3.89,5.8a.74.74,0,0,0,1.2-.08c.42-.5,5.59-7.75,6-8.21.62-.74.25-1.53-.71-1.28C328.8,379.79,320.08,381.76,319.54,381.92Zm6.5,14a1,1,0,0,0-1.61.54c-.21.78-1.12,6.5-1.21,7a.74.74,0,0,0,.91.87c.62-.12,9.17-1.39,9.74-1.53,1-.25,1.32-1.24.29-2C333.49,400.29,326.62,396.21,326,395.88Zm-6.83,13.54a.89.89,0,0,1,1.4.67c.17.74,2,8.36,2.29,9.77a.87.87,0,0,1-1.33.87c-.66-.41-7.86-5.43-8.32-5.84-.67-.58-.21-1.18.12-1.49C314,412.78,318.58,409.76,319.21,409.42Zm-20,4.18c-.83-.08-1.08.67-1,1.33s1.36,9.06,1.45,9.69a.88.88,0,0,0,1.69.37c.62-.91,4.88-7.72,5.22-8.37.63-1.15.17-1.4-.45-1.69A68.78,68.78,0,0,0,299.16,413.6ZM287.23,404c.58-1,1.33-.71,1.87.2.37.63,3.48,4.81,3.77,5.26s.41,1.32-.5,1.53-8.33,2.16-9.48,2.37-1.83-.7-1.08-1.7C282.24,411,286.9,404.5,287.23,404Zm-1.57-7.21c1.06.47,1.56.3,1.78-.46a58.72,58.72,0,0,0,1.2-6.59c0-.67-.25-1.32-1.28-1.16s-8.49,1.21-9.44,1.54a1.08,1.08,0,0,0-.3,2C278.49,392.53,284.91,396.42,285.66,396.75Zm12.88-17.4a.9.9,0,0,0-.12-1.53c-.54-.37-7.19-5.18-8-5.84s-1.66-.37-1.41.95c.18.95,2.3,9.28,2.44,9.86s.67,1,1.25.58S297.92,379.85,298.54,379.35Z" transform="translate(-277.08 -367.61)"/></svg>