<svg id="Layer_1" data-name="Layer 1" xmlns="http://www.w3.org/2000/svg" viewBox="0 0 59.61 62.32"><defs><style>.cls-1{fill:#fc6;}.cls-2{fill:#fff;}.cls-3{fill:#ddd;}</style></defs><path class="cls-1" d="M314.15,387.45,294.32,405.3,309.7,410l-11.54,17.62,22.3-21.05-12-5.33Z" transform="translate(-276.23 -365.34)"/><path class="cls-2" d="M327.66,380.11h0s0-.06,0-.1a8.15,8.15,0,0,0-8.15-8.15,7.81,7.81,0,0,0-1.69.18,10.78,10.78,0,0,0-18.37-2.69,9.38,9.38,0,0,0-13.59,7.45,10.17,10.17,0,0,0,.41,20.32,9.13,9.13,0,0,0,1.29-.07,13.54,13.54,0,0,0,20.82,4.67A10.73,10.73,0,0,0,325.09,396a8.16,8.16,0,0,0,10.75-7.75A8.18,8.18,0,0,0,327.66,380.11Z" transform="translate(-276.23 -365.34)"/><path class="cls-3" d="M332.46,381.67c1.86,1.87.55,6.16-.73,7.56-2.5,2.75-7.1,2.1-9,1.71-.5-.11-.58-.07-.74,0s-.21.23-.37.56a8.85,8.85,0,0,1-5.38,4.77c-3.37,1-6.56-.55-8.05-1.5-.56-.36-.59-.37-.84-.36a1.52,1.52,0,0,0-.82.43,13.42,13.42,0,0,1-9.17,2.66,10.43,10.43,0,0,1-8.23-4.61c-.17-.28-.36-.52-.57-.54s-.53.23-.74.44c-2,1.93-8.21,2.51-10.27-.78a10.28,10.28,0,0,0,8.68,5.08,9,9,0,0,0,1.28-.08,13.53,13.53,0,0,0,20.82,4.68A10.74,10.74,0,0,0,325.1,396a8.16,8.16,0,0,0,10.74-7.75A8.31,8.31,0,0,0,332.46,381.67Z" transform="translate(-276.23 -365.34)"/></svg>