<svg id="Layer_1" data-name="Layer 1" xmlns="http://www.w3.org/2000/svg" viewBox="0 0 52.42 55"><defs><style>.cls-1{fill:#fff;}</style></defs><path class="cls-1" d="M314.15,404.88a17.84,17.84,0,1,1,11.31-4.05A17.85,17.85,0,0,1,314.15,404.88Zm0-30.91a13.13,13.13,0,1,0,13.1,11.84A13.14,13.14,0,0,0,314.15,374Z" transform="translate(-279.56 -369.21)"/><path class="cls-1" d="M281.7,421.87a2.25,2.25,0,0,1-1.55-.77,2.3,2.3,0,0,1-.59-1.54,2.34,2.34,0,0,1,.59-1.55l20-20a2.3,2.3,0,0,1,1.64-.68,2.44,2.44,0,0,1,.89.18,2.31,2.31,0,0,1,.76.51,2.57,2.57,0,0,1,.5.76,2.47,2.47,0,0,1,.17.89,2.3,2.3,0,0,1-.69,1.64L283.24,421.1A2.25,2.25,0,0,1,281.7,421.87Z" transform="translate(-279.56 -369.21)"/><path class="cls-1" d="M292.51,424.21a2.22,2.22,0,0,1-.88-.17,2.31,2.31,0,0,1-.76-.51l-6.18-6.18a2.32,2.32,0,0,1-.62-1.62,2.31,2.31,0,0,1,2.28-2.27,2.27,2.27,0,0,1,1.62.62l6.18,6.18a2.31,2.31,0,0,1,0,3.27,2.27,2.27,0,0,1-.75.51A2.24,2.24,0,0,1,292.51,424.21Zm6.18-6.18a2.42,2.42,0,0,1-.88-.17,2.17,2.17,0,0,1-.75-.51l-6.19-6.18a2.33,2.33,0,0,1-.53-.75,2.31,2.31,0,0,1,0-1.81,2.32,2.32,0,0,1,1.28-1.28,2.31,2.31,0,0,1,1.81,0,2.36,2.36,0,0,1,.75.54l6.18,6.18a2.33,2.33,0,0,1-.75,3.78A2.43,2.43,0,0,1,298.69,418Z" transform="translate(-279.56 -369.21)"/></svg>